Motion_pl12
version=1
nRows=8
nColumns=43
inDegrees=yes
endheader
time	pelvis_tilt	pelvis_list	pelvis_rotation	pelvis_tx	pelvis_ty	pelvis_tz	hip_flexion_r	hip_adduction_r	hip_rotation_r	knee_angle_r	ankle_angle_r	subtalar_angle_r	mtp_angle_r	hip_flexion_l	hip_adduction_l	hip_rotation_l	knee_angle_l	ankle_angle_l	subtalar_angle_l	mtp_angle_l	lumbar_extension	lumbar_bending	lumbar_rotation	neck_flexion	neck_lateral_bending	neck_rotation	arm_flex_r	arm_add_r	arm_rot_r	elbow_flex_r	pro_sup_r	wrist_flex_r	wrist_dev_r	hand_finger_flex_r	arm_flex_l	arm_add_l	arm_rot_l	elbow_flex_l	pro_sup_l	wrist_flex_l	wrist_dev_l	hand_finger_flex_l
      0.00250000	      3.90965987	     -9.47734114	     87.27948766	      0.03636962	      1.80479952	      1.96374109	     82.03173682	      3.21421703	     -4.32168171	   -126.28066211	     25.60916410	     -1.32586755	     19.05299237	     84.07604395	     -6.00193448	      1.84441922	   -130.95000026	     21.74838355	     -1.77947184	      9.69850721	    -57.49787363	      1.94633555	      1.88419706	     30.47310428	     -2.17381121	      5.26929878	      1.57851489	    -19.57801559	     -9.88167866	     70.71389672	    108.25711750	     -4.07768834	     -7.76968891	     21.52380042	     -1.29318392	    -18.29083131	    -10.48903736	     60.90933779	    107.25349381	      1.68662676	     -0.29569516	     27.51733568
      0.00500000	      3.88004932	     -9.38130439	     87.25506704	      0.03650523	      1.80259147	      1.96350377	     82.18022168	      3.19621262	     -4.33633814	   -126.69481766	     25.62162354	     -1.25892373	     19.07074442	     84.22906695	     -6.04575544	      1.82518645	   -131.33595330	     21.75971466	     -1.82812782	      9.73911430	    -57.71701036	      1.88515941	      1.84290953	     30.57357875	     -2.17854119	      5.28414212	      1.79899379	    -19.51824201	     -9.82326775	     70.94347777	    108.30584784	     -4.07024526	     -7.83145256	     21.53482189	     -1.10717422	    -18.32156332	    -10.48010189	     60.92233842	    107.26414339	      1.65815762	     -0.28558119	     27.49652401
      0.00750000	      3.56431608	     -9.47817676	     87.06350946	      0.03658007	      1.79992532	      1.96349990	     82.64858497	      3.20559562	     -3.88101238	   -127.17294147	     25.76454745	     -0.41773702	     19.40096200	     84.55767164	     -6.12142527	      1.41030394	   -131.66578605	     21.59768175	     -2.21741698	     10.67684665	    -57.75994604	      1.55686204	      1.65094602	     30.87841074	     -2.15179646	      5.37690245	      1.91681045	    -19.46260708	     -9.81655918	     71.37790822	    109.30120305	     -4.15358062	     -7.87723452	     21.45155640	     -1.03407950	    -18.39110672	    -10.43835759	     61.17062660	    107.35542117	      1.53905957	     -0.28111960	     27.35262352
      0.01000000	      3.55685732	     -9.38827571	     87.06628077	      0.03671676	      1.79771733	      1.96327946	     82.80274684	      3.18330378	     -3.93190193	   -127.57705329	     25.76108562	     -0.41762731	     19.41734337	     84.72410044	     -6.15003871	      1.42322582	   -132.04809187	     21.61401749	     -2.22953903	     10.71912770	    -57.97521583	      1.51784062	      1.61806444	     30.98073075	     -2.13484015	      5.35521662	      2.15974438	    -19.41695166	     -9.74260243	     71.59036278	    109.30315067	     -4.12924555	     -7.92577190	     21.44254959	     -0.83657978	    -18.42737346	    -10.41502099	     61.20208747	    107.37146713	      1.56108862	     -0.28689559	     27.35867742
      0.01250000	      3.55442913	     -9.32136230	     87.06347216	      0.03682609	      1.79545448	      1.96309924	     82.98889079	      3.17122789	     -3.97322631	   -127.98351860	     25.73779131	     -0.39076803	     19.44091325	     84.92349246	     -6.18161664	      1.44186231	   -132.43231798	     21.62460514	     -2.23386817	     10.76864807	    -58.17885626	      1.48253343	      1.59432432	     31.13604703	     -2.10929877	      5.33720159	      2.38083697	    -19.41212373	     -9.66127827	     71.86064253	    109.31121412	     -4.10797526	     -7.97450124	     21.42112793	     -0.66131428	    -18.48018643	    -10.38714107	     61.29823070	    107.39149409	      1.60567768	     -0.31169157	     27.37877714
      0.01500000	      3.56231433	     -9.35319083	     87.05823475	      0.03699455	      1.79308534	      1.96313920	     83.31605786	      3.18348967	     -4.01170752	   -128.35798323	     25.62446186	     -0.25991678	     19.51539451	     85.25667249	     -6.21738491	      1.49986126	   -132.77130256	     21.61039463	     -2.19733696	     10.91456941	    -58.35103198	      1.44064482	      1.61205497	     31.53618193	     -2.07331254	      5.33564600	      2.54176737	    -19.50606148	     -9.56311044	     72.29575508	    109.32546941	     -4.10802857	     -8.00359305	     21.31722281	     -0.54474025	    -18.59023271	    -10.35787619	     61.59235920	    107.43497627	      1.75816016	     -0.41204174	     27.46672400
      0.01750000	      3.56222051	     -9.28733469	     87.04321735	      0.03698512	      1.79096652	      1.96296546	     83.47468906	      3.16497692	     -4.04680968	   -128.72254399	     25.63110797	     -0.23573793	     19.54516822	     85.43541936	     -6.23580471	      1.51618137	   -133.13322439	     21.61572704	     -2.19450405	     10.95365930	    -58.54675121	      1.41149464	      1.59354392	     31.60503505	     -2.05363296	      5.33209233	      2.82959434	    -19.45860677	     -9.56844808	     72.48608710	    109.30624189	     -4.14066731	     -8.02602009	     21.27117052	     -0.32467061	    -18.58621954	    -10.36916340	     61.63924737	    107.44596898	      1.77811674	     -0.43619050	     27.48318251
      0.02000000	      3.62657468	     -9.39266018	     87.04747911	      0.03715468	      1.78862075	      1.96297633	     83.85069703	      3.17269821	     -4.13270478	   -129.06564748	     25.56815460	      0.06261037	     19.93837455	     85.84741584	     -6.27719602	      1.68437692	   -133.45331219	     21.53891162	     -1.98201737	     11.51860478	    -58.64029953	      1.40800968	      1.68013255	     32.06474628	     -2.01596925	      5.38212553	      2.99085563	    -19.47118477	     -9.50962512	     72.88264507	    109.12792925	     -4.55643220	     -7.82957220	     20.66110184	     -0.09653390	    -18.50924103	    -10.60677656	     61.74239048	    107.62552162	      2.13900452	     -0.68850306	     27.83269257
